<svg width="121" height="44" viewBox="0 0 121 44" fill="none" xmlns="http://www.w3.org/2000/svg">
<path d="M43.904 28.28C42.8773 28.28 41.9627 28.0653 41.16 27.636C40.3573 27.188 39.7227 26.5813 39.256 25.816C38.808 25.0507 38.584 24.1827 38.584 23.212V19.348C38.584 18.3773 38.8173 17.5093 39.284 16.744C39.7507 15.9787 40.3853 15.3813 41.188 14.952C41.9907 14.504 42.896 14.28 43.904 14.28C45.1173 14.28 46.2093 14.5973 47.18 15.232C48.1693 15.848 48.944 16.688 49.504 17.752C50.0827 18.7973 50.372 19.9827 50.372 21.308C50.372 22.6147 50.0827 23.8 49.504 24.864C48.944 25.9093 48.1693 26.74 47.18 27.356C46.2093 27.972 45.1173 28.28 43.904 28.28ZM36.708 33.6V14.56H39.788V18.172L39.256 21.448L39.788 24.696V33.6H36.708ZM43.4 25.368C44.1467 25.368 44.8 25.2 45.36 24.864C45.9387 24.5093 46.3867 24.024 46.704 23.408C47.04 22.792 47.208 22.0827 47.208 21.28C47.208 20.4773 47.04 19.768 46.704 19.152C46.3867 18.536 45.9387 18.06 45.36 17.724C44.8 17.3693 44.1467 17.192 43.4 17.192C42.6533 17.192 41.9907 17.3693 41.412 17.724C40.8333 18.06 40.3853 18.536 40.068 19.152C39.7507 19.768 39.592 20.4773 39.592 21.28C39.592 22.0827 39.7507 22.792 40.068 23.408C40.3853 24.024 40.8333 24.5093 41.412 24.864C41.9907 25.2 42.6533 25.368 43.4 25.368ZM52.9782 28V14.56H56.0582V28H52.9782ZM54.5182 12.096C53.9955 12.096 53.5569 11.9187 53.2022 11.564C52.8662 11.2093 52.6982 10.7707 52.6982 10.248C52.6982 9.72533 52.8662 9.28667 53.2022 8.932C53.5569 8.57733 53.9955 8.4 54.5182 8.4C55.0595 8.4 55.4982 8.57733 55.8342 8.932C56.1702 9.28667 56.3382 9.72533 56.3382 10.248C56.3382 10.7707 56.1702 11.2093 55.8342 11.564C55.4982 11.9187 55.0595 12.096 54.5182 12.096ZM68.7247 28V20.244C68.7247 19.348 68.4354 18.6107 67.8567 18.032C67.2967 17.4533 66.5687 17.164 65.6727 17.164C65.0754 17.164 64.5434 17.2947 64.0767 17.556C63.61 17.8173 63.246 18.1813 62.9847 18.648C62.7234 19.1147 62.5927 19.6467 62.5927 20.244L61.3887 19.572C61.3887 18.5453 61.6127 17.64 62.0607 16.856C62.5087 16.0533 63.1247 15.428 63.9087 14.98C64.7114 14.5133 65.6074 14.28 66.5967 14.28C67.6047 14.28 68.5007 14.5413 69.2847 15.064C70.0687 15.568 70.6847 16.2307 71.1327 17.052C71.5807 17.8547 71.8047 18.6947 71.8047 19.572V28H68.7247ZM59.5127 28V14.56H62.5927V28H59.5127ZM80.5346 33.88C79.1159 33.88 77.8746 33.6187 76.8106 33.096C75.7466 32.592 74.8879 31.8733 74.2346 30.94L76.2506 28.924C76.7919 29.596 77.4079 30.1 78.0986 30.436C78.7892 30.772 79.6199 30.94 80.5906 30.94C81.8039 30.94 82.7652 30.6227 83.4746 29.988C84.1839 29.372 84.5386 28.5227 84.5386 27.44V24.136L85.0706 21.168L84.5386 18.172V14.56H87.6186V27.44C87.6186 28.728 87.3199 29.848 86.7226 30.8C86.1252 31.7707 85.2946 32.5267 84.2306 33.068C83.1666 33.6093 81.9346 33.88 80.5346 33.88ZM80.3946 27.72C79.1999 27.72 78.1172 27.4307 77.1466 26.852C76.1946 26.2547 75.4386 25.4427 74.8786 24.416C74.3372 23.3893 74.0666 22.2413 74.0666 20.972C74.0666 19.7027 74.3372 18.564 74.8786 17.556C75.4386 16.548 76.1946 15.7547 77.1466 15.176C78.1172 14.5787 79.1999 14.28 80.3946 14.28C81.4586 14.28 82.3919 14.4947 83.1946 14.924C83.9972 15.3533 84.6226 15.9507 85.0706 16.716C85.5186 17.4627 85.7426 18.34 85.7426 19.348V22.652C85.7426 23.6413 85.5092 24.5187 85.0426 25.284C84.5946 26.0493 83.9692 26.6467 83.1666 27.076C82.3639 27.5053 81.4399 27.72 80.3946 27.72ZM81.0106 24.808C81.7572 24.808 82.4106 24.6493 82.9706 24.332C83.5306 24.0147 83.9599 23.576 84.2586 23.016C84.5759 22.4373 84.7346 21.7653 84.7346 21C84.7346 20.2347 84.5759 19.572 84.2586 19.012C83.9599 18.4333 83.5306 17.9853 82.9706 17.668C82.4106 17.3507 81.7572 17.192 81.0106 17.192C80.2639 17.192 79.6012 17.3507 79.0226 17.668C78.4626 17.9853 78.0239 18.4333 77.7066 19.012C77.3892 19.572 77.2306 20.2347 77.2306 21C77.2306 21.7467 77.3892 22.4093 77.7066 22.988C78.0239 23.5667 78.4626 24.0147 79.0226 24.332C79.6012 24.6493 80.2639 24.808 81.0106 24.808ZM96.556 28.28C95.4174 28.28 94.4 28.028 93.504 27.524C92.6267 27.02 91.936 26.3293 91.432 25.452C90.9467 24.556 90.704 23.5293 90.704 22.372V14.56H93.784V22.232C93.784 22.8853 93.8867 23.4453 94.092 23.912C94.316 24.36 94.6334 24.7053 95.044 24.948C95.4734 25.1907 95.9774 25.312 96.556 25.312C97.452 25.312 98.1334 25.0507 98.6 24.528C99.0854 23.9867 99.328 23.2213 99.328 22.232V14.56H102.408V22.372C102.408 23.548 102.156 24.584 101.652 25.48C101.167 26.3573 100.485 27.048 99.608 27.552C98.7307 28.0373 97.7134 28.28 96.556 28.28ZM112.701 28.28C111.674 28.28 110.76 28.0653 109.957 27.636C109.154 27.188 108.52 26.5813 108.053 25.816C107.605 25.0507 107.381 24.1827 107.381 23.212V19.348C107.381 18.3773 107.614 17.5093 108.081 16.744C108.548 15.9787 109.182 15.3813 109.985 14.952C110.788 14.504 111.693 14.28 112.701 14.28C113.914 14.28 115.006 14.5973 115.977 15.232C116.966 15.848 117.741 16.688 118.301 17.752C118.88 18.7973 119.169 19.9827 119.169 21.308C119.169 22.6147 118.88 23.8 118.301 24.864C117.741 25.9093 116.966 26.74 115.977 27.356C115.006 27.972 113.914 28.28 112.701 28.28ZM105.505 33.6V14.56H108.585V18.172L108.053 21.448L108.585 24.696V33.6H105.505ZM112.197 25.368C112.944 25.368 113.597 25.2 114.157 24.864C114.736 24.5093 115.184 24.024 115.501 23.408C115.837 22.792 116.005 22.0827 116.005 21.28C116.005 20.4773 115.837 19.768 115.501 19.152C115.184 18.536 114.736 18.06 114.157 17.724C113.597 17.3693 112.944 17.192 112.197 17.192C111.45 17.192 110.788 17.3693 110.209 17.724C109.63 18.06 109.182 18.536 108.865 19.152C108.548 19.768 108.389 20.4773 108.389 21.28C108.389 22.0827 108.548 22.792 108.865 23.408C109.182 24.024 109.63 24.5093 110.209 24.864C110.788 25.2 111.45 25.368 112.197 25.368Z" fill="#4F39F6"/>
<path d="M0.0619184 21.0601L20.2432 4.00023L12.4475 34.7521L12.1408 23.8491L0.0619184 21.0601Z" fill="#4F39F6"/>
<path d="M13.798 17.2924L27.9439 21.5243L7.23363 39.2052L7.23841 39.2095L13.798 17.2924Z" fill="#4F39F6"/>
</svg>
